<?xml version="1.0" encoding="UTF-8"?>
<svg width="1003px" height="106px" viewBox="0 0 1003 106" version="1.1" xmlns="http://www.w3.org/2000/svg" xmlns:xlink="http://www.w3.org/1999/xlink">
    <!-- Generator: Sketch 55.2 (78181) - https://sketchapp.com -->
    <title>Anarock Logo</title>
    <desc>Created with Sketch.</desc>
    <g id="Page-1" stroke="none" stroke-width="1" fill="none" fill-rule="evenodd">
        <g id="Anarock-Logo" fill="#231F20" fill-rule="nonzero">
            <path d="M168.92,65.96 L102.81,1.11 L102.81,101.72 L120.21,101.72 L120.21,40.77 L186.31,105.3 L186.31,4.73 L168.92,4.73 L168.92,65.96 Z M615.69,47.45 L653.4,4.73 L632.8,4.73 L591.8,51.21 L591.8,4.73 L574.4,4.73 L574.4,101.73 L591.8,101.73 L591.8,73.3 L604,59.84 L634.19,101.72 L654.52,101.72 L615.69,47.45 Z M422.69,2.91999104 C402.341504,2.91999104 383.996653,15.177638 376.209621,33.9771965 C368.422589,52.7767551 372.726899,74.415983 387.115458,88.8045422 C401.504017,103.193101 423.143245,107.497411 441.942803,99.7103793 C460.742362,91.9233472 473,73.5784955 473,53.23 C473,39.8817589 467.695382,27.0806651 458.253937,17.644847 C448.812492,8.20902898 436.008239,2.9120404 422.66,2.91999104 L422.69,2.91999104 Z M422.69,87.7500058 C408.721192,87.7580902 396.123531,79.349175 390.773227,66.4456127 C385.422923,53.5420504 388.374058,38.6860176 398.250067,28.807146 C408.126077,18.9282744 422.981254,15.9728355 435.886366,21.3194008 C448.791478,26.6659661 457.204043,39.2611898 457.200001,53.23 C457.177939,72.2935322 441.723542,87.7389806 422.66,87.7500058 L422.69,87.7500058 Z M0,101.72 L18.38,101.72 L27,82.93 L68.75,82.93 L77.38,101.72 L95.89,101.72 L48,0 L0,101.72 Z M33.55,67.9 L47.88,36.3 L62.21,67.9 L33.55,67.9 Z M193.16,101.72 L211.53,101.72 L220.15,82.93 L261.9,82.93 L270.52,101.72 L289,101.72 L241.16,0 L193.16,101.72 Z M226.69,67.9 L241,36.3 L255.35,67.9 L226.69,67.9 Z M365.12,35.48 C365.324212,27.2201264 361.978413,19.2688468 355.93,13.64 C350.037493,7.75569706 341.995218,4.53661937 333.67,4.73 L296,4.73 L296,101.73 L313.4,101.73 L313.4,67.21 L330.65,67.21 L351.38,101.72 L371,101.72 L347.45,63.03 C358,58.58 365.12,48.15 365.12,35.48 Z M331.87,51.62 L313.36,51.62 L313.36,20.46 L333.26,20.46 C341.6,20.46 347.86,26.85 347.86,35.76 C347.86,45.09 341.32,51.62 331.87,51.62 Z M529.48,18.69 C538.645807,18.6619109 547.440887,22.3067188 553.9,28.81 L565.05,17.66 C550.663564,3.26584546 529.022219,-1.04341116 510.219348,6.74203939 C491.416476,14.5274899 479.155918,32.8740487 479.155918,53.225 C479.155918,73.5759513 491.416476,91.9225101 510.219348,99.7079606 C529.022219,107.493411 550.663564,103.184155 565.05,88.79 L553.9,77.64 C542.848447,88.6882909 525.754455,90.9372236 512.221345,83.1233587 C498.688235,75.3094938 492.08979,59.3808154 496.132984,44.2859776 C500.176179,29.1911398 513.853051,18.6932616 529.48,18.69 Z" id="Shape"></path>
            <polygon id="Path" points="684.62 4.67 739.26 4.67 739.26 23.21 721.26 23.21 721.26 103.53 702.16 103.53 702.16 23.21 684.62 23.21"></polygon>
            <polygon id="Path" points="752.23 4.67 806.23 4.67 806.23 23.08 770.92 23.08 770.92 40.96 806.2 40.96 806.2 59.04 770.92 59.04 770.92 85.04 806.2 85.04 806.2 103.53 752.2 103.53"></polygon>
            <path d="M914.6,22.04 L901.44,34.59 C892.48,25.1233333 882.41,20.39 871.23,20.39 C862.287195,20.262167 853.673045,23.7576035 847.347939,30.080826 C841.022833,36.4040484 837.524831,45.017157 837.65,53.96 C837.548194,60.0920306 839.047544,66.1445777 842,71.52 C844.837549,76.5855744 849.049569,80.7455944 854.15,83.52 C859.493793,86.4629975 865.509905,87.9687482 871.61,87.89 C876.771854,87.9603458 881.888166,86.9166181 886.61,84.83 C891.13,82.79 896.096667,79.08 901.51,73.7 L914.2,87.05 C906.866667,94.1766667 899.966667,99.12 893.5,101.88 C886.43674,104.739635 878.868996,106.144344 871.25,106.01 C855.916667,106.01 843.34,101.14 833.52,91.4 C823.7,81.66 818.803333,69.17 818.83,53.93 C818.660392,44.7282726 820.971261,35.6505957 825.52,27.65 C830.106351,19.8649897 836.726656,13.4763088 844.67,9.17 C852.858556,4.54039569 862.113413,2.12758375 871.52,2.16945026 C888.087418,2.20814496 903.816058,9.46274274 914.6,22.04 L914.6,22.04 Z" id="Path"></path>
            <polygon id="Path" points="931 4.67 950.09 4.67 950.09 41.96 983.09 41.96 983.09 4.67 1002.09 4.67 1002.09 103.53 983.09 103.53 983.09 60.18 950.09 60.18 950.09 103.53 931 103.53"></polygon>
        </g>
    </g>
</svg>