<svg xmlns="http://www.w3.org/2000/svg" viewBox="0 0 306.17 35.62"><defs><style>.cls-1{fill:#34b6c3;}.cls-2{fill:#162b43;}</style></defs><title>Logo-full-color</title><g id="Layer_2" data-name="Layer 2"><g id="Layer_1-2" data-name="Layer 1"><path class="cls-1" d="M33.09,0,22.25,35.62H17.83L28.65,0Z"/><path class="cls-2" d="M43.52,4.7,55,30.4H49.54l-1.7-3.83H39.21l-1.7,3.83H32Zm2.32,17.41-2.3-5.33-2.33,5.33Z"/><path class="cls-2" d="M63.6,5.22h8.22a9.26,9.26,0,0,1,6.59,2.56,7.09,7.09,0,0,1,2.44,5.72v.66A8.16,8.16,0,0,1,79.26,19a5.8,5.8,0,0,1-3,2.33L82.1,30.4H75.91L68.68,19.26V30.4H63.62Zm12,8.44a3.4,3.4,0,0,0-1-2.43,4.74,4.74,0,0,0-3.12-1H68.67v7H72.3A3.46,3.46,0,0,0,75.63,13.66Z"/><path class="cls-2" d="M101.22,30.57A12.75,12.75,0,0,1,88.45,17.83a12.4,12.4,0,0,1,3.75-9,12.31,12.31,0,0,1,9-3.76l0,.06a13,13,0,0,1,9.06,3.73l-3.61,3.61a7.46,7.46,0,0,0-5.42-2.25,7.3,7.3,0,0,0-5.4,2.25,7.46,7.46,0,0,0-2.25,5.42,7.38,7.38,0,0,0,2.25,5.42,7.67,7.67,0,0,0,10.84,0l3.61,3.6A12.73,12.73,0,0,1,101.22,30.57Z"/><path class="cls-2" d="M122.63,5.22V15.3h8.42V5.22h5V30.4h-5V20.31h-8.42V30.4h-5V5.22Z"/><path class="cls-2" d="M144.34,5.22h5.06V30.4h-5.06Z"/><path class="cls-2" d="M171.26,21.54,183.59,4.63V30.4h-5.07V20l-7.26,10L164,20V30.4h-5.06V4.63Z"/><path class="cls-2" d="M196.61,5.22,201.2,14l4.59-8.73h5.74l-7.81,14.39V30.4h-5V19.61l-7.8-14.39Z"/><path class="cls-2" d="M225.54,5.22a12.83,12.83,0,0,1,9.2,3.7,12.07,12.07,0,0,1,3.37,8.91,12,12,0,0,1-3.37,8.88,12.55,12.55,0,0,1-9.2,3.69h-6.7V5.24h6.7Zm0,5h-1.64V25.35h1.69c4.54,0,7.5-3,7.5-7.56A7.15,7.15,0,0,0,225.52,10.23Z"/><path class="cls-2" d="M261.88,5.16v5H251.76v5.08h7.59v5h-7.59V25.4h10.12v5H246.69V5.16Z"/><path class="cls-2" d="M276.2,25.44a2.93,2.93,0,0,0,2.94-2.55c0-2.3-3.08-2.63-4.82-3.23-3.07-1-5.79-3.56-5.79-7a7.68,7.68,0,0,1,15.29-1.07l-5,1.07a2.56,2.56,0,1,0-5.11,0c0,2.27,2.87,2.87,4.62,3.39,3.18.92,6,3.34,6,6.84a8,8,0,0,1-8.05,7.68,8.11,8.11,0,0,1-8-6.61l5-1.07a2.91,2.91,0,0,0,3,2.56Z"/><path class="cls-2" d="M8.11,17.24l5-4.82,0-8.31L0,17.43,13.15,30.78l0-8Z"/><path class="cls-2" d="M298.06,17.65l-5,4.82,0,8.31,13.08-13.32L293,4.11l0,8Z"/></g></g></svg>