<?xml version="1.0" encoding="UTF-8"?>
<svg width="153px" height="152px" viewBox="0 0 153 152" version="1.1" xmlns="http://www.w3.org/2000/svg" xmlns:xlink="http://www.w3.org/1999/xlink">
    <!-- Generator: Sketch 42 (36781) - http://www.bohemiancoding.com/sketch -->
    <title>Group 7</title>
    <desc>Created with Sketch.</desc>
    <defs></defs>
    <g id="landing" stroke="none" stroke-width="1" fill="none" fill-rule="evenodd">
        <g id="Landing" transform="translate(-996.000000, -2697.000000)">
            <g id="team" transform="translate(0.000000, 2558.000000)">
                <g id="you" transform="translate(996.000000, 139.000000)">
                    <g id="Group-7">
                        <rect id="Rectangle-13" fill="#FFFFFF" x="0" y="0" width="153" height="152"></rect>
                        <g id="fa-question" transform="translate(51.000000, 46.000000)" fill="#CECECE">
                            <path d="M0.945833333,17.0916667 L9.55,23.6375 C10.0166667,23.9208333 10.3916667,24.0125 10.8583333,24.0125 C11.5125,24.0125 11.9791667,23.7333333 12.4458333,23.1708333 C14.975,20.0833333 16.8416667,18.0291667 18.0583333,17.1875 C19.5541667,16.1583333 21.425,15.6875 23.6708333,15.6875 C25.8208333,15.6875 27.6916667,16.25 29.2833333,17.3708333 C30.8708333,18.4958333 31.7125,19.7125 31.7125,21.2083333 C31.7125,22.7958333 31.2458333,24.2 30.4041667,25.1333333 C29.5625,26.1625 28.0666667,27.1916667 26.0083333,28.1291667 C23.2958333,29.3416667 20.7708333,31.2125 18.525,33.7375 C16.2833333,36.2625 15.1583333,38.975 15.1583333,41.875 L15.1583333,44.2125 C15.1583333,44.8666667 15.3458333,45.525 15.7208333,46.1791667 C16.0958333,46.8333333 16.5625,47.1125 17.0291667,47.1125 L29.5625,47.1125 C30.125,47.1125 30.6833333,46.8333333 31.0583333,46.3666667 C31.525,45.8041667 31.7125,45.2416667 31.7125,44.6833333 C31.7125,43.7458333 32.1833333,42.625 33.1166667,41.1291667 C34.05,39.725 35.2666667,38.6041667 36.6708333,37.7625 C38.075,37.0125 39.1041667,36.3583333 39.85,35.8916667 C40.6,35.4208333 41.6291667,34.675 42.8416667,33.6458333 C44.0583333,32.6166667 45.0875,31.5875 45.7416667,30.5583333 C46.3958333,29.5291667 47.05,28.2208333 47.5208333,26.5375 C48.0791667,24.9458333 48.3625,23.1708333 48.3625,21.3 C48.3625,18.4 47.6125,15.6875 46.2083333,13.0708333 C44.8083333,10.45 42.9375,8.20833333 40.6916667,6.42916667 C38.4458333,4.55833333 35.9208333,3.15833333 33.1166667,2.03333333 C30.2166667,1.00416667 27.5041667,0.445833333 24.7,0.445833333 C14.1333333,0.445833333 5.99583333,5.02916667 0.475,14.2875 C0.195833333,14.7541667 0.104166667,15.2208333 0.195833333,15.7833333 C0.291666667,16.25 0.570833333,16.7166667 0.945833333,17.0916667 L0.945833333,17.0916667 Z M15.8166667,66.5666667 C16.1875,67.0333333 16.6583333,67.2208333 17.2166667,67.2208333 L29.8416667,67.2208333 C30.4041667,67.2208333 30.8708333,67.0333333 31.2458333,66.5666667 C31.7125,66.1916667 31.9,65.725 31.9,65.1625 L31.9,52.5375 C31.9,51.975 31.7125,51.5083333 31.2458333,51.1333333 C30.8708333,50.6666667 30.4041667,50.4791667 29.8416667,50.4791667 L17.2166667,50.4791667 C16.6583333,50.4791667 16.1875,50.6666667 15.8166667,51.1333333 C15.3458333,51.5083333 15.1583333,51.975 15.1583333,52.5375 L15.1583333,65.1625 C15.1583333,65.725 15.3458333,66.1916667 15.8166667,66.5666667 L15.8166667,66.5666667 Z" id="Fill-149"></path>
                        </g>
                    </g>
                </g>
            </g>
        </g>
    </g>
</svg>