<?xml version="1.0" encoding="utf-8"?>
<svg xmlns="http://www.w3.org/2000/svg" width="137.25" height="35" viewBox="0 0 137.25 35"><title>Asset 5</title><g id="Layer_2" data-name="Layer 2"><g id="NEW_S" data-name="NEW S"><path d="M57.3,26.53,50.1,9.66h2.35L57.3,21.35,62.13,9.66h2.36ZM87.89,15a7,7,0,0,0-7,7A6.91,6.91,0,0,0,82,25.79l1.8-1.17A4.77,4.77,0,0,1,83.05,22a4.84,4.84,0,1,1,4.84,4.84h0V29h0a7,7,0,1,0,0-14Zm-58,7a7,7,0,1,1,7,7A7.11,7.11,0,0,1,29.92,22Zm2.17,0a4.85,4.85,0,1,0,4.85-4.85A4.94,4.94,0,0,0,32.09,22Zm77.82,7a5.18,5.18,0,0,0,5.17-5.17V9.37h-2.14V23.85a3,3,0,0,1-6.06,0V9.37h-2.14V23.85A5.18,5.18,0,0,0,109.91,29Zm11.15-5.18a11.15,11.15,0,0,1-21.56,4A13,13,0,0,1,77,29.12v5.19H74.88V9.66H77v5.19A13,13,0,0,1,100.91,22v1.86a9,9,0,1,0,18,0v-7h0a7.1,7.1,0,0,1,2.66-5.75A10.19,10.19,0,0,1,128.24,9a10.67,10.67,0,0,1,7.64,3l-.81,1.81a10.19,10.19,0,0,0-6.83-2.69c-4.2,0-7.18,2.11-7.18,5.7h0v.07c.08,6.76,10.73,5.89,10.73,10.2,0,1.6-1.5,3-4.17,3a10.13,10.13,0,0,1-5.51-1.75,13.16,13.16,0,0,0,.58-2.09A8.72,8.72,0,0,0,127.75,28c1.25,0,1.9-.32,1.9-.92,0-.38-.36-.78-2.93-1.81A17.17,17.17,0,0,1,121.06,22ZM98.76,22A10.87,10.87,0,1,0,87.89,32.86,10.88,10.88,0,0,0,98.76,22Zm28-5.28c0-.39.5-.71,1.52-.71a6.07,6.07,0,0,1,1.48.19,9,9,0,0,1,3.44,1.71l.81-1.82a10.27,10.27,0,0,0-5.94-2.23c-2.31,0-3.45,1.52-3.45,3,0,4.33,10.46,3.11,10.46,10,0,3.76-3.2,6-7.69,6A11,11,0,0,1,121,30.64a12.4,12.4,0,0,1-1.3,1.75,13.63,13.63,0,0,0,7.73,2.54c5.66,0,9.83-3.08,9.83-8.22C137.25,19.1,126.79,18.56,126.79,16.71ZM68.74,34.31h2.14V14.85l-2.14,4.82Zm-10-2.15H55.85L49,16.89A13,13,0,0,0,37,9a12.61,12.61,0,0,0-4.84.94V0H30V13.66a10.87,10.87,0,1,1,7,19.2,10,10,0,0,1-6.41-2.21l-1.27,1.71A12,12,0,0,0,37,35,13,13,0,0,0,49.86,24.14l4.56,10.17h5.75l11-24.65H68.83ZM6,22a7,7,0,1,1,7,7A7,7,0,0,1,6,22Zm2.14,0A4.85,4.85,0,1,0,13,17.14,4.84,4.84,0,0,0,8.17,22Zm15.72-7.16A13,13,0,0,0,13,9h0v2.14h0A10.9,10.9,0,0,1,23.89,22h0A10.88,10.88,0,1,1,4.8,14.88l-1.63-1.4A13,13,0,1,0,26,22V0H23.89Z"/></g></g></svg>
