<svg xmlns="http://www.w3.org/2000/svg" width="103" height="16" viewBox="0 0 103 16" fill="none">
<path d="M7.68 15.288C11.856 15.288 14.4 12.672 14.4 7.944C14.4 3.192 11.856 0.576 7.68 0.576C3.504 0.576 0.984 3.192 0.984 7.944C0.984 12.672 3.504 15.288 7.68 15.288ZM7.68 3.48C9.912 3.48 11.016 5.184 11.016 7.992C11.016 10.776 9.912 12.48 7.68 12.48C5.448 12.48 4.368 10.776 4.368 7.992C4.368 5.184 5.472 3.48 7.68 3.48ZM26.879 7.704C28.415 7.32 29.423 6.216 29.423 4.416C29.423 2.184 27.887 0.863999 25.031 0.863999H19.223V15H25.007C28.463 15 29.999 13.464 29.999 11.136C29.999 9.36 28.919 8.064 26.879 7.8V7.704ZM22.487 6.768V3.624H24.287C25.487 3.624 26.183 4.032 26.183 5.208C26.183 6.336 25.463 6.768 24.359 6.768H22.487ZM22.487 9.144H24.791C26.063 9.144 26.711 9.672 26.711 10.656C26.711 11.856 26.015 12.24 24.791 12.24H22.487V9.144ZM36.4075 0.863999H32.9275L37.5835 15H41.5195L46.1755 0.863999H42.7675L40.4635 8.496C39.8635 10.44 39.6955 12.24 39.6955 12.24H39.5995C39.5995 12.24 39.4075 10.464 38.7835 8.472L36.4075 0.863999ZM50.2699 0.863999V15H53.5339V0.863999H50.2699ZM65.0628 15.288C69.2388 15.288 71.7828 12.672 71.7828 7.944C71.7828 3.192 69.2388 0.576 65.0628 0.576C60.8868 0.576 58.3668 3.192 58.3668 7.944C58.3668 12.672 60.8868 15.288 65.0628 15.288ZM65.0628 3.48C67.2948 3.48 68.3988 5.184 68.3988 7.992C68.3988 10.776 67.2948 12.48 65.0628 12.48C62.8308 12.48 61.7508 10.776 61.7508 7.992C61.7508 5.184 62.8548 3.48 65.0628 3.48ZM84.6458 0.863999V9.336C84.6458 11.376 84.1178 12.576 82.0538 12.576C80.0138 12.576 79.4858 11.376 79.4858 9.36V0.863999H76.2218V10.272C76.2218 14.088 78.9338 15.288 82.0538 15.288C85.1978 15.288 87.8858 14.088 87.8858 10.272V0.863999H84.6458ZM91.653 11.832C92.373 14.376 94.245 15.288 97.029 15.288C100.029 15.288 102.525 14.16 102.525 11.088C102.525 8.376 101.013 7.368 98.037 6.432C96.381 5.928 95.613 5.544 95.613 4.56C95.613 3.648 96.333 3.24 97.245 3.24C98.229 3.24 99.165 3.792 99.285 5.04L102.525 4.224C102.237 1.536 100.077 0.551999 97.173 0.551999C94.701 0.551999 92.205 1.608 92.205 4.8C92.205 7.224 93.549 8.448 96.789 9.48C98.637 10.056 99.141 10.488 99.141 11.4C99.141 12.36 98.349 12.792 97.269 12.792C95.925 12.792 94.893 11.904 94.629 10.512L91.653 11.832Z" fill="#3C3C3C"/>
</svg>