<?xml version="1.0" encoding="UTF-8"?>
<svg width="128px" height="32px" viewBox="0 0 128 32" version="1.1" xmlns="http://www.w3.org/2000/svg" xmlns:xlink="http://www.w3.org/1999/xlink">
    <!-- Generator: Sketch 57.1 (83088) - https://sketch.com -->
    <title>Brand/PaytmInsider Logo</title>
    <desc>Created with Sketch.</desc>
    <g id="Brand/PaytmInsider-Logo" stroke="none" stroke-width="1" fill="none" fill-rule="evenodd">
        <g id="o/Brand/Logo-Text" fill="#0C172F">
            <path d="M43.8507509,3.68956295 C43.9369631,3.89901879 44,4.10294385 44,4.58198041 L43.9994438,11.6096341 C43.9994438,11.8165922 43.8036586,11.9830507 43.5633768,11.9830507 L41.5910636,11.9825155 C41.3507818,11.982337 41.1549966,11.8157001 41.1549966,11.6087421 L41.1481367,5.07475471 C41.1490637,4.75254241 40.8911687,4.47564678 40.4643718,4.44388943 L40.3809406,4.44371101 L40.1007972,4.44371101 C39.9608182,4.45477257 39.8391941,4.4920607 39.7379643,4.54754687 C39.532909,4.66333634 39.4161053,4.8583408 39.4170323,5.07421947 L39.4174031,11.6438892 C39.406279,11.8413915 39.2167975,12.0001783 38.9839318,11.9999999 L37.011804,11.9994646 C36.7713368,11.9992862 36.5755516,11.8319356 36.5755516,11.6247991 L36.5688771,5.08206961 C36.5688771,4.88528103 36.4732093,4.70597684 36.3017119,4.58929531 C36.1912119,4.51400539 36.0512329,4.46387158 35.8851122,4.45120432 L35.5947716,4.45120432 L35.5215376,4.45102591 C35.1244052,4.48117756 34.8729992,4.72221235 34.8412953,5.01570029 C34.8385143,5.03710975 34.8377727,5.05851921 34.8377727,5.08153437 L34.8379581,11.6569133 C34.8092207,11.8385369 34.6282677,11.9787688 34.4083802,11.9787688 L32.436067,11.9782336 C32.1948582,11.9782336 32,11.8114182 32,11.6044602 L32.0007416,2.44531677 C32.0007416,2.23818029 32.1957852,2.07172178 32.436994,2.07172178 L34.4093072,2.07225702 C34.6384649,2.07243543 34.8238675,2.22390732 34.8416662,2.41677083 L34.8416662,2.61034799 C35.3574563,2.22961651 36.0289846,1.99982169 36.7639206,1.9999999 L36.790804,1.9999999 C37.6258575,2.00017852 38.3791484,2.29794836 38.9162598,2.77573603 C39.4524442,2.29830518 40.2057351,2.00107058 41.0417156,2.00124899 L41.068599,2.00124899 C42.3543662,2.00160581 43.4491688,2.70722578 43.8507509,3.68956295 Z M30.5624457,1.93077927 C30.8035471,1.93077927 31,2.10026621 31,2.30819906 L30.999814,4.01443973 C30.999814,4.22237259 30.803361,4.39167902 30.5622597,4.39167902 L29.4534913,4.39131803 L29.4518169,11.626912 C29.4518169,11.8332204 29.2583406,12.0001804 29.0198437,12 L27.0631279,11.9994584 C26.8238869,11.9994584 26.6304105,11.8323179 26.6304105,11.6260095 L26.632829,4.39041554 L25.4384844,4.39005455 C25.1964529,4.39005455 25,4.22074811 25,4.01281526 L25.000186,2.30639409 C25.000186,2.12661881 25.1473397,1.97734757 25.3428625,1.93962364 L25.3410021,1.93890165 L25.3428625,1.93890165 C25.3735582,1.93330624 25.4051842,1.9293353 25.4386705,1.9293353 L25.6611683,1.9293353 C27.952189,1.80244572 27.7010418,0.303776902 28.9558477,0.00721989071 C28.9800322,0.00324895082 29.005147,0 29.0311919,0 C29.2520154,0.000180497268 29.430609,0.154325164 29.430609,0.344388787 L29.430609,0.349262213 L29.4304229,1.93059878 L30.5624457,1.93077927 Z M23.5900807,2.00197924 C23.816826,2.00197924 24,2.17075409 24,2.37803407 L23.9994771,9.49248774 C23.9993029,10.9574822 22.8619161,12.0005396 21.2642416,12 L18.2327208,11.9991001 C18.0059755,11.9991001 17.8229758,11.8308651 17.8229758,11.6228654 L17.8229758,9.92270167 C17.8231501,9.71542169 18.0063241,9.54682677 18.2328951,9.54682677 L20.9442536,9.53890982 C20.9557564,9.53729045 20.9653421,9.53477142 20.9757992,9.53315205 C21.1894732,9.50850156 21.3543472,9.34296546 21.3543472,9.1405436 C21.3543472,8.93578264 21.1859875,8.76916696 20.9696992,8.74667564 C20.9330993,8.74037807 19.7347127,8.74001821 19.7347127,8.74001821 C18.1379096,8.73947842 17,7.69498162 17,6.23070686 L17.0003486,2.3758749 C17.0003486,2.16877485 17.1835226,2 17.4102679,2 L19.2643163,2.00053979 C19.4903645,2.00071972 19.6744099,2.16949457 19.6744099,2.37677456 L19.6810328,5.88757931 C19.6810328,6.10835409 19.8755353,6.28612547 20.1160492,6.2863054 L20.8923165,6.28648533 C21.1303904,6.28648533 21.3222787,6.11213263 21.3266358,5.89441667 L21.3269844,2.37731435 C21.3269844,2.17003436 21.5101584,2.00125951 21.7360323,2.00143944 L23.5900807,2.00197924 Z M4.30810946,6.17267088 L4.30810946,4.86638082 C4.30810946,4.64518333 4.1130576,4.46739675 3.87234787,4.46721662 L2.69136574,4.46685637 L2.6911908,6.57273572 L3.87217294,6.57219534 C4.11288267,6.57237547 4.30810946,6.39296773 4.30810946,6.17267088 Z M4.47202299,2.0012609 C5.96193927,2.00180128 7,2.95125728 7,4.32005184 L6.99965013,6.72224217 C6.99965013,8.09103673 5.96141447,9.03671004 4.47149819,9.03616965 L2.69101587,9.03580939 L2.68384356,11.6237119 C2.68384356,11.8319402 2.49911283,12.00018 2.27239785,12 L0.411270773,11.9994595 L0.376283894,11.9994595 C0.167937024,11.994596 0,11.8270767 0,11.6219107 L0.0001749344,9.42182423 L0.000524803199,4.07039409 C0.000524803199,4.06318896 0.0013994752,4.05526332 0.0013994752,4.04715755 C0.0013994752,4.04391524 0.000524803199,4.04085306 0.000524803199,4.03761075 L0.000699737598,2.36908278 C0.000699737598,2.16571799 0.181057104,2 0.404273397,2 L4.47202299,2.0012609 Z M12.9495349,9.40876106 L12.9495349,7.94676748 C12.9495349,7.73850577 12.7276865,7.57023175 12.4535919,7.57023175 L11.5770829,7.56986987 C11.3037799,7.56986987 11.082921,7.73705825 11.0819315,7.94387244 L11.080942,7.9464056 L11.080942,8.2151012 L11.0799525,9.07366055 C11.0799525,9.07764123 11.0807441,9.0816219 11.0807441,9.08560258 L11.0807441,9.40821824 C11.0807441,9.61593713 11.303582,9.78493491 11.576885,9.78493491 L12.453394,9.78529679 C12.6722739,9.78529679 12.856323,9.67673291 12.9216307,9.52709569 C12.9297447,9.50936359 12.9366713,9.49090773 12.9416188,9.47154717 C12.9455769,9.45146285 12.9495349,9.43047384 12.9495349,9.40876106 Z M12.615476,2.0009047 C15.0021769,2.00162846 16.0001979,2.99553078 16,4.56916422 L15.9994063,11.0598367 C15.9994063,11.5787721 15.4438947,12.0001809 14.7585593,12 L10.9410251,11.9990952 C9.12170988,11.9985524 7.9998021,11.0156874 8,9.63511675 L8,9.58445361 L8.0001979,7.64622647 C8.0001979,6.2575135 9.30556105,5.26903937 11.1375421,5.26958219 L12.5151395,5.26994407 C12.7251138,5.25384043 12.8972887,5.11216456 12.9220265,4.91837804 L12.9220265,4.69781242 C12.8974866,4.49425515 12.7231348,4.36397849 12.5032654,4.33575188 L9.72155155,4.33502812 C9.44824857,4.33484718 9.22659806,4.16584941 9.22659806,3.95903522 L9.22659806,3.0474605 C9.22659806,3.04257513 9.22758757,3.03787069 9.22758757,3.03298532 C9.22758757,3.02900464 9.22659806,3.02411927 9.22659806,3.02013859 L9.22659806,2.35482295 C9.22659806,2.15922702 9.43558282,2 9.69404314,2 L12.615476,2.0009047 Z M0,31 L0,14 L4,14 L4,31 L0,31 Z M23,31 L18.6921718,31 L18.6921718,21.4665458 C18.6921718,19.0999093 17.5298541,17.9332729 15.2392515,17.9332729 C12.9486488,17.9332729 11.3074563,19.8999093 11.3074563,22.6 L11.3074563,31 L7,31 L7,14.4665458 L11.3074563,14.4665458 L11.3074563,17.1330916 C12.7093044,15.0331822 14.623874,14 17.0511652,14 C20.7093973,14 23,16.2999093 23,19.7332729 L23,31 Z M32.5060055,21.0763002 C36.3452843,21.9350981 38,23.4465898 38,26.3320461 C38,27.9466833 37.4044392,29.3206478 36.2127774,30.3855497 C35.0544225,31.4506384 33.4657802,32 31.5129241,32 C27.7067719,32 25.2246084,29.904578 24,26.8815945 L27.3427381,24.683214 C28.1039325,26.9159763 29.5602479,28.3588913 31.5793575,28.3588913 C32.9362928,28.3588913 34.1607212,27.6032389 34.1607212,26.4693865 C34.1607212,25.3359078 33.1679998,24.7861725 30.6525295,24.2710059 C27.2104113,23.5839302 24.926648,21.8321395 24.926648,18.9464964 C24.926648,17.4006229 25.5223888,16.1985674 26.7138705,15.3395827 C27.9053522,14.4465898 29.3616677,14 31.0496901,14 C34.5249351,14 36.4776112,15.3741514 37.8345464,18.2938026 L34.8227155,20.1487387 C34.0615211,18.1564622 32.8037859,17.1603239 31.1157635,17.1603239 C29.4610478,17.1603239 28.6336,17.6754905 28.6336,18.6716288 C28.6336,19.7365307 29.9242818,20.5609467 32.5060055,21.0763002 Z M40,31 L40,14 L44,14 L44,31 L40,31 Z M55.1368177,28.0337046 C56.5398043,28.0337046 57.6691555,27.563059 58.5930009,26.6555943 C59.5170324,25.7479468 59.9617365,24.5713328 59.9617365,23.1932225 C59.9617365,21.7816514 59.5170324,20.6386811 58.5930009,19.7310335 C57.6691555,18.8235688 56.5398043,18.3529233 55.1368177,18.3529233 C53.7678959,18.3529233 52.6387309,18.8235688 51.7146994,19.7310335 C50.8249188,20.6386811 50.3800285,21.7816514 50.3800285,23.1932225 C50.3800285,24.5713328 50.8249188,25.7479468 51.7146994,26.6555943 C52.6387309,27.563059 53.7678959,28.0337046 55.1368177,28.0337046 Z M64,8 L64,31.5293544 L59.6881011,31.5293544 L59.6881011,29.1764921 C58.6957538,30.8237517 56.8134398,32 54.3496039,32 C51.988521,32 50.0036402,31.1934663 48.3953339,29.6136769 C46.7870277,28.0337046 46,25.8823386 46,23.1932225 C46,20.5377501 46.8210925,18.4200277 48.4979007,16.8065946 C50.174895,15.1933444 52.1253387,14.3866279 54.3496039,14.3866279 C56.8476907,14.3866279 58.6272519,15.2268052 59.6881011,16.9073428 L59.6881011,8 L64,8 Z M70.0894128,20.8700807 L79.0793555,20.8700807 C78.6737969,18.6714904 77.0853899,17.2975117 74.6858657,17.2975117 C72.488937,17.2975117 70.7315778,18.8434013 70.0894128,20.8700807 Z M83,24.0306242 L70.0894128,24.0306242 C70.3598464,26.6412399 72.1510328,28.2900892 74.6858657,28.2900892 C76.7474857,28.2900892 78.2684222,27.2595584 79.3161458,25.1641146 L82.4929599,27.0190701 C80.9045528,30.3513376 78.3020655,32 74.6182113,32 C72.2186871,32 70.1907105,31.1757622 68.5010057,29.4925308 C66.8449443,27.8092994 66,25.6450913 66,22.9999066 C66,20.3549087 66.8449443,18.2250828 68.5348329,16.5418514 C70.2583649,14.8588068 72.353812,14 74.8209906,14 C77.2206986,14 79.180837,14.7898556 80.7017735,16.4045095 C82.2225262,18.0189766 83,20.045656 83,22.5189299 L83,24.0306242 Z M94.3484771,18.1666364 C93.924996,17.9998187 93.5016922,17.9332729 93.0130057,17.9332729 C90.5699275,17.9332729 89.1040452,19.9332729 89.1040452,22.8333636 L89.1040452,31 L85,31 L85,14.4665458 L89.1040452,14.4665458 L89.1040452,17.0999093 C90.1140209,15.0331822 91.6123288,14 93.5993231,14 C94.1530379,14 94.6091217,14.0665458 95,14.2 L94.3484771,18.1666364 Z" id="Shape"></path>
        </g>
        <g id="Brand/Insider-Heart" transform="translate(97.000000, 4.000000)">
            <g id="o/Brand/Insider-Heart/Colour" transform="translate(0.000000, 1.937500)">
                <g id="Group" transform="translate(-0.000000, 0.964286)">
                    <path d="M1.50274514,8.53889624 C-0.4621634,10.4658146 -0.524919497,13.6960702 1.4605927,15.6024413 L4.78723294,18.9199757 L11.9126964,11.813828 L8.62291587,8.53286401 C6.65422684,6.62234575 3.45461099,6.60839624 1.50274514,8.53889624" id="Fill-32" fill="#EC1066"></path>
                    <path d="M22.3228366,8.53889624 C24.2877451,10.4658146 24.3505012,13.6960702 22.3648,15.6024413 L19.0383488,18.9199757 L11.9126964,11.813828 L15.2026659,8.53286401 C17.1713549,6.62234575 20.3709707,6.60839624 22.3228366,8.53889624" id="Fill-33" fill="#31C0F0"></path>
                    <path d="M4.78647684,18.9211068 L10.0933366,24.2134403 C11.0322207,25.1205359 12.7672756,25.164835 13.6961415,24.2477485 L19.0387268,18.9199757 L11.9126964,11.814205 L4.78647684,18.9211068" id="Fill-34" fill="#0C172F"></path>
                    <path d="M23.7443,7.12132373 C22.5914403,5.96615295 21.0486232,5.21891127 19.3880439,5.06094242 C19.3759464,5.05981138 19.3638488,5.05868034 19.3515622,5.0575493 C19.2852146,5.05151707 19.2230256,5.02342953 19.1759586,4.97630279 C19.0638671,4.86451815 19.0638671,4.68336294 19.1759586,4.57176681 L22.2995866,1.45668893 C24.2111903,-0.523576911 27.4503122,-0.460804086 29.3825195,1.49853748 L29.3825195,1.49872599 C31.347239,3.42545585 31.4101842,6.65571149 29.4244829,8.5622711 L26.3010439,11.677349 C26.1889525,11.7889451 26.0073,11.7889451 25.8952086,11.6771605 C25.8481415,11.6302222 25.8197878,11.5682034 25.813739,11.5020375 C25.8127939,11.489973 25.8116598,11.4777201 25.8103366,11.4656556 C25.6519342,9.80981031 24.9026415,8.27121632 23.7443,7.12132373" id="Fill-35" fill="#EC1066"></path>
                </g>
            </g>
        </g>
    </g>
</svg>